HIERARCHY
ROOT Hips
{
	OFFSET -21.947001 39.810204 44.525997
	CHANNELS 6 Xposition Yposition Zposition Zrotation Xrotation Yrotation
	JOINT Chest
	{
		OFFSET -0.201599 0.334099 6.453201
		CHANNELS 6 Xposition Yposition Zposition Zrotation Xrotation Yrotation
		JOINT Chest2
		{
			OFFSET 0.000000 0.000000 3.568001
			CHANNELS 6 Xposition Yposition Zposition Zrotation Xrotation Yrotation
			JOINT Neck
			{
				OFFSET 0.000000 0.000000 8.296402
				CHANNELS 6 Xposition Yposition Zposition Zrotation Xrotation Yrotation
				JOINT Head
				{
					OFFSET 0.000000 0.000000 2.173901
					CHANNELS 6 Xposition Yposition Zposition Zrotation Xrotation Yrotation
					End Site
					{
						OFFSET 0.000000 0.000000 7.891998
					}
				}
			}
			JOINT LeftCollar
			{
				OFFSET 1.927601 0.221401 6.049000
				CHANNELS 6 Xposition Yposition Zposition Zrotation Xrotation Yrotation
				JOINT LeftShoulder
				{
					OFFSET 4.959700 0.000000 0.000000
					CHANNELS 6 Xposition Yposition Zposition Zrotation Xrotation Yrotation
					JOINT LeftElbow
					{
						OFFSET 0.000000 0.000000 -8.654202
						CHANNELS 6 Xposition Yposition Zposition Zrotation Xrotation Yrotation
						JOINT LeftWrist
						{
							OFFSET 0.000000 0.000000 -13.864101
							CHANNELS 6 Xposition Yposition Zposition Zrotation Xrotation Yrotation
							End Site
							{
								OFFSET 0.000000 0.000000 -2.173901
							}
						}
					}
				}
			}
			JOINT RightCollar
			{
				OFFSET -3.155701 -0.764999 6.687801
				CHANNELS 6 Xposition Yposition Zposition Zrotation Xrotation Yrotation
				JOINT RightShoulder
				{
					OFFSET -3.592899 0.000000 0.000000
					CHANNELS 6 Xposition Yposition Zposition Zrotation Xrotation Yrotation
					JOINT RightElbow
					{
						OFFSET 0.000000 0.000000 -10.352398
						CHANNELS 6 Xposition Yposition Zposition Zrotation Xrotation Yrotation
						JOINT RightWrist
						{
							OFFSET 0.000000 0.000000 -12.750301
							CHANNELS 6 Xposition Yposition Zposition Zrotation Xrotation Yrotation
							End Site
							{
								OFFSET 0.000000 0.000000 -2.173901
							}
						}
					}
				}
			}
		}
	}
	JOINT LeftHip
	{
		OFFSET 2.460600 -0.518101 -2.735500
		CHANNELS 6 Xposition Yposition Zposition Zrotation Xrotation Yrotation
		JOINT LeftKnee
		{
			OFFSET 0.000000 -0.000004 -17.005899
			CHANNELS 6 Xposition Yposition Zposition Zrotation Xrotation Yrotation
			JOINT LeftAnkle
			{
				OFFSET 0.000000 0.000000 -19.194401
				CHANNELS 6 Xposition Yposition Zposition Zrotation Xrotation Yrotation
				End Site
				{
					OFFSET 0.000000 -8.134600 0.000000
				}
			}
		}
	}
	JOINT RightHip
	{
		OFFSET -3.115499 -0.679600 -2.320301
		CHANNELS 6 Xposition Yposition Zposition Zrotation Xrotation Yrotation
		JOINT RightKnee
		{
			OFFSET 0.000000 -0.000004 -17.680401
			CHANNELS 6 Xposition Yposition Zposition Zrotation Xrotation Yrotation
			JOINT RightAnkle
			{
				OFFSET 0.000000 0.000000 -16.993797
				CHANNELS 6 Xposition Yposition Zposition Zrotation Xrotation Yrotation
				End Site
				{
					OFFSET 0.000000 -8.842300 0.000000
				}
			}
		}
	}
}
MOTION
Frames: 4
Frame Time: 0.041667
-27.500896 42.146206 45.029694 2540.929819 -2.188459 0.082109 -0.201602 0.334100 6.453205 -21.786804 6.828437 4.422615 0.000001 -0.000002 3.567996 6.810557 -4.230761 1.048280 -0.000001 0.000007 8.296396 242.963161 -174.321522 165.757216 0.000001 0.000008 2.173895 -2.129185 -2.395407 7.651060 1.927597 0.221408 6.048997 -16.053774 -0.503358 6.816049 4.959702 -0.000006 0.000004 180.971586 190.151319 90.133157 -0.000004 -0.000005 -8.654202 75.131377 -4.972878 1.539053 0.000003 0.000009 -13.864098 4198.716396 -156.343358 165.487861 -3.155703 -0.764993 6.687799 25.696888 -2.615914 15.793622 -3.592890 -0.000009 0.000013 -16.855889 -8.889001 133.724736 -0.000009 -0.000001 -10.352395 -180.005005 -144.430675 -157.270816 0.000000 -0.000007 -12.750296 29.078841 179.435790 -225.348090 2.460601 -0.518097 -2.735501 -23.780627 9.243503 -9.415975 -0.000003 -0.000004 -17.005901 -204.368003 172.984868 -140.900573 -0.000006 0.000000 -19.194399 610.461544 155.257959 245.770123 -3.115499 -0.679589 -2.320296 -12.416196 -11.983638 -8.270716 -0.000001 0.000004 -17.680401 -473.329978 152.823201 -205.876300 0.000011 0.000002 -16.993795 667.282216 23.017145 -385.302173
-27.132797 42.169899 45.037697 2538.976275 -2.126885 0.082679 -0.201603 0.334097 6.453199 -19.911455 7.008009 4.734916 -0.000001 0.000004 3.568003 4.085511 -4.299413 0.405071 -0.000005 0.000005 8.296402 243.824366 -174.184195 165.325999 -0.000003 -0.000002 2.173901 -2.470665 -2.310981 7.891734 1.927603 0.221408 6.048997 -16.888182 0.022170 6.784181 4.959707 -0.000001 0.000007 179.631079 190.592522 90.815554 0.000007 0.000000 -8.654199 75.184455 -5.111991 1.654492 0.000000 0.000001 -13.864094 4198.017859 -155.964487 165.653316 -3.155704 -0.764997 6.687806 25.754620 -4.139554 14.683684 -3.592898 0.000002 0.000013 -16.690394 -7.614717 134.463270 -0.000002 0.000001 -10.352386 -181.144868 -145.119704 -158.487969 0.000002 -0.000003 -12.750290 29.040192 179.529897 -225.862430 2.460602 -0.518109 -2.735511 -26.596169 9.791400 -10.629799 -0.000004 0.000004 -17.005901 -201.859780 174.002348 -139.288785 -0.000004 0.000002 -19.194397 611.205215 155.142870 246.858336 -3.115497 -0.679596 -2.320301 -12.110376 -11.725484 -8.081791 -0.000000 0.000004 -17.680399 -473.191790 152.825974 -205.354255 0.000010 0.000003 -16.993793 668.004194 22.961643 -384.589647
-26.763798 42.195808 45.047791 2537.119557 -1.991308 -0.063289 -0.201602 0.334104 6.453203 -18.146088 7.101545 5.162073 0.000003 0.000002 3.568001 1.485745 -4.330973 -0.226123 0.000004 0.000008 8.296394 244.724804 -173.975177 164.833201 0.000007 0.000004 2.173892 -2.834486 -2.253921 8.083908 1.927602 0.221402 6.048997 -17.298793 0.462678 6.787916 4.959704 0.000001 0.000006 177.761438 190.891042 91.472318 0.000005 0.000002 -8.654206 75.269327 -5.250769 1.726773 0.000001 0.000001 -13.864098 4197.052672 -156.191796 164.804801 -3.155704 -0.765003 6.687799 25.846845 -5.430706 13.487272 -3.592891 -0.000001 0.000010 -16.712100 -6.545190 135.226435 -0.000008 -0.000005 -10.352403 -182.416690 -145.856873 -159.836003 -0.000004 -0.000010 -12.750299 28.965623 179.616080 -226.367359 2.460601 -0.518095 -2.735506 -24.129062 8.909164 -12.526092 -0.000001 0.000004 -17.005899 -204.840583 174.817039 -138.128691 -0.000007 0.000005 -19.194401 612.363615 155.322204 248.158804 -3.115499 -0.679590 -2.320301 -11.919856 -11.677063 -7.732540 -0.000003 0.000000 -17.680397 -472.433202 152.874264 -205.105322 0.000008 0.000003 -16.993792 668.421491 22.726802 -383.950943
-26.392097 42.223503 45.059795 2535.205574 -1.747873 -0.096942 -0.201601 0.334098 6.453193 -16.307391 7.173941 5.462146 0.000001 0.000003 3.567994 -1.068752 -4.368141 -0.855775 0.000000 0.000001 8.296398 245.645841 -173.724236 164.295734 0.000007 0.000000 2.173898 -3.189314 -2.215535 8.232248 1.927603 0.221406 6.048996 -18.712748 0.991263 6.799294 4.959701 -0.000004 0.000007 176.900998 191.431665 92.135004 0.000001 -0.000005 -8.654202 75.445211 -5.482565 1.857847 0.000001 0.000002 -13.864100 4196.240043 -156.021547 164.837723 -3.155702 -0.765001 6.687800 24.391038 -4.025756 12.066601 -3.592894 -0.000001 0.000010 -15.917223 -8.303404 135.161056 -0.000006 0.000000 -10.352396 -183.775979 -146.624395 -161.244005 0.000008 -0.000002 -12.750300 28.853390 179.705979 -226.867301 2.460602 -0.518102 -2.735505 -25.453533 9.388045 -13.915833 -0.000001 -0.000009 -17.005899 -203.810359 176.268290 -137.733784 -0.000004 0.000007 -19.194399 613.921991 155.774267 249.692947 -3.115494 -0.679590 -2.320295 -14.532863 -11.629363 -8.092654 0.000002 0.000003 -17.680401 -468.644141 152.843651 -205.212555 0.000005 -0.000003 -16.993795 668.827259 22.616261 -383.304615
